<?xml version="1.0" standalone="no"?><!DOCTYPE svg PUBLIC "-//W3C//DTD SVG 1.1//EN" "http://www.w3.org/Graphics/SVG/1.1/DTD/svg11.dtd"><svg t="1655218431067" class="icon" viewBox="0 0 1024 1024" version="1.1" xmlns="http://www.w3.org/2000/svg" p-id="1341" xmlns:xlink="http://www.w3.org/1999/xlink" width="200" height="200"><defs><style type="text/css">@font-face { font-family: feedback-iconfont; src: url("//at.alicdn.com/t/font_1031158_u69w8yhxdu.woff2?t=1630033759944") format("woff2"), url("//at.alicdn.com/t/font_1031158_u69w8yhxdu.woff?t=1630033759944") format("woff"), url("//at.alicdn.com/t/font_1031158_u69w8yhxdu.ttf?t=1630033759944") format("truetype"); }
</style></defs><path d="M916.219251 240.97019 783.036973 107.772562c-28.013007-28.027333-65.264423-43.450604-104.887862-43.450604-39.638789 0-76.875878 15.437597-104.873536 43.450604L113.119337 567.9288c-32.698726 32.698726-48.225351 79.099523-41.98216 124.907824 0.044002 0.593518 0.089028 1.186012 0.162706 1.779529l19.351744 174.320211-12.974499 12.974499c-17.795295 17.779945-17.795295 46.638203 0 64.419172 8.897647 8.897647 20.553105 13.345959 32.209586 13.345959s23.311939-4.449335 32.209586-13.345959l13.541411-13.541411 165.82063 18.434861c9.816576 1.987261 19.826558 2.995217 29.836539 2.995217 0 0 0 0 0.014326 0 39.579437 0 76.786851-15.392572 104.754832-43.346227l460.156238-460.156238c28.013007-28.013007 43.450604-65.249073 43.450604-104.873536S944.232259 268.983197 916.219251 240.97019zM851.80008 386.283764 391.644865 846.440002c-10.750855 10.750855-25.076118 16.668635-40.33566 16.668635-0.014326 0-0.014326 0-0.014326 0-4.25593 0-8.527211-0.459464-12.678764-1.393743-1.601474-0.356111-3.232624-0.623193-4.863774-0.801249l-140.611481-15.628956c-1.792832-2.858094-3.845585-5.597485-6.333242-8.083096-2.674922-2.674922-5.653767-4.812609-8.752338-6.684236l-15.775288-142.157697c-0.073678-2.016937-0.267083-4.063549-0.607844-6.110161-3.054569-18.254759 2.891863-36.910655 15.867386-49.900503l460.170564-460.170564c21.576411-21.576411 59.258639-21.621437 80.894402 0.014326l133.197628 133.197628c10.79588 10.810207 16.757662 25.165146 16.757662 40.454364C868.557742 361.118618 862.59596 375.473557 851.80008 386.283764z" p-id="1342" fill="#e6e6e6"></path><path d="M336.345398 684.35444c-20.938891-20.938891-45.481867-36.880979-72.975035-47.409776-15.629979-5.946432-33.217543 1.853208-39.223327 17.513886-5.991458 15.659655 1.853208 33.232892 17.513886 39.223327 19.47147 7.444553 36.880979 18.759249 51.739385 33.618679 15.926738 15.926738 27.716248 34.670637 35.056424 55.729256 4.374634 12.516058 16.119119 20.37505 28.680203 20.37505 3.321652 0 6.688329-0.548492 10.009981-1.705851 15.83771-5.53097 24.186865-22.852474 18.670222-38.690184C375.435695 733.261313 358.78241 706.791451 336.345398 684.35444z" p-id="1343" fill="#e6e6e6"></path></svg>